<?xml version="1.0" standalone="no"?>
<!DOCTYPE svg PUBLIC "-//W3C//DTD SVG 20010904//EN"
 "http://www.w3.org/TR/2001/REC-SVG-20010904/DTD/svg10.dtd">
<svg version="1.0" xmlns="http://www.w3.org/2000/svg"
 width="340.000000pt" height="340.000000pt" viewBox="0 0 340.000000 340.000000"
 preserveAspectRatio="xMidYMid meet">
<metadata>
Created by potrace 1.14, written by Peter Selinger 2001-2017
</metadata>
<g transform="translate(0.000000,340.000000) scale(0.100000,-0.100000)"
fill="#000000" stroke="none">
<path d="M1430 3384 c-273 -58 -479 -229 -558 -463 -24 -70 -22 -83 6 -58 37
34 167 71 287 83 28 2 70 7 95 11 25 3 275 7 556 8 593 3 593 3 674 84 36 36
51 60 57 92 19 92 -26 175 -122 224 l-59 30 -435 2 c-340 1 -450 -2 -501 -13z"/>
<path d="M1628 2685 c-2 -2 -39 -6 -83 -10 -44 -3 -91 -9 -105 -12 -39 -10
-96 -49 -125 -87 -22 -30 -182 -427 -229 -571 -7 -22 -29 -80 -49 -130 -19
-49 -97 -254 -172 -455 -76 -201 -144 -378 -152 -394 -8 -16 -23 -52 -32 -80
l-17 -52 50 28 c58 32 128 54 201 64 28 3 59 8 70 10 55 12 303 18 704 19
l445 0 81 -250 81 -250 -796 -5 -795 -5 -47 -28 c-53 -31 -94 -79 -114 -134
-9 -25 -13 -89 -14 -185 0 -134 2 -148 18 -149 9 0 483 -1 1052 -1 1164 -1
1109 -4 1189 71 99 93 108 193 38 407 -25 77 -84 261 -132 409 -157 488 -196
609 -210 650 -20 60 -94 291 -180 560 -42 132 -83 259 -91 281 -54 152 -199
258 -394 289 -43 7 -187 14 -192 10z m138 -536 c88 -259 225 -691 221 -695 -2
-2 -144 -3 -315 -2 l-310 3 167 400 c92 220 170 409 174 419 4 10 10 17 13 14
3 -3 25 -66 50 -139z"/>
</g>
</svg>
